<?xml version="1.0" encoding="utf-8"?>
<!-- Generator: Adobe Illustrator 25.2.1, SVG Export Plug-In . SVG Version: 6.00 Build 0)  -->
<svg version="1.1" id="Layer_1" xmlns="http://www.w3.org/2000/svg" xmlns:xlink="http://www.w3.org/1999/xlink" x="0px" y="0px"
	 viewBox="0 0 3000 3000" style="enable-background:new 0 0 3000 3000;" xml:space="preserve">
<style type="text/css">
	.st0{fill:#FF7D7D;stroke:#FF7D7D;stroke-miterlimit:10;}
	.st1{fill:#ED7B72;}
	.st2{fill:#FF9280;stroke:#FF9280;stroke-miterlimit:10;}
	.st3{fill:#FFC7C0;stroke:#FF9280;stroke-miterlimit:10;}
	.st4{font-family:'BebasNeueBold';}
	.st5{font-size:1294.7582px;}
</style>
<path class="st0" d="M1979.5,1627.5c0,265.1-214.9,480-480,480s-480-214.9-480-480s215.9-720,481-720S1979.5,1362.4,1979.5,1627.5z"
	/>
<path class="st1" d="M1622.56,1539h-247c-52.9-0.56-97,49.17-97,109.97v0c0,60.79,44.1,110.53,98,110.53h247
	c53.9,0,98-49.74,98-110.53v0C1721.56,1588.18,1677.46,1538.44,1622.56,1539z"/>
<path class="st2" d="M1622.5,1518.5h-247c-53.9,0-98,44.1-98,98v0c0,53.9,44.1,98,98,98h247c53.9,0,98-44.1,98-98v0
	C1720.5,1562.6,1676.4,1518.5,1622.5,1518.5z"/>
<circle class="st1" cx="1399.5" cy="1616.5" r="38.5"/>
<circle class="st1" cx="1586.5" cy="1616.5" r="38.5"/>
<circle class="st3" cx="1254" cy="1433" r="91"/>
<circle class="st3" cx="1747.5" cy="1433.5" r="91"/>
<circle class="st0" cx="1278.45" cy="1397.12" r="35.95"/>
<circle class="st0" cx="1721.45" cy="1397.12" r="35.95"/>
<path class="st0" d="M1387.95,1182.58l-113.05,20.63c-86.97,15.87-170.35-41.76-186.22-128.74l-20.63-113.05l113.05-20.63
	c86.97-15.87,170.35,41.76,186.22,128.74L1387.95,1182.58z"/>
<path class="st0" d="M1672.09,1207.7l-37.3-108.7c-28.7-83.62,15.83-174.68,99.46-203.37l108.7-37.3l37.3,108.7
	c28.7,83.62-15.83,174.68-99.46,203.37L1672.09,1207.7z"/>
<g>
	<text transform="matrix(1.2925 0 0 1 349.0005 1958.2363)" class="st0 st4 st5">p</text>
</g>
<text transform="matrix(1.2925 0 0 1 2030.9072 1957.9053)" class="st0 st4 st5">g</text>
</svg>
